<svg width="705" height="255" viewBox="0 0 705 255" fill="none" xmlns="http://www.w3.org/2000/svg">
<path d="M309.796 184.04C306.862 192.04 302.329 199.374 296.196 206.04C290.329 212.44 283.262 218.04 274.996 222.84C266.996 227.374 258.062 230.974 248.196 233.64C238.329 236.04 227.929 237.24 216.996 237.24C201.262 237.24 186.729 234.84 173.396 230.04C160.062 224.974 148.596 217.907 138.996 208.84C129.396 199.774 121.796 189.107 116.196 176.84C110.862 164.307 108.196 150.707 108.196 136.04C108.196 121.107 110.862 107.507 116.196 95.2402C121.796 82.9736 129.396 72.3069 138.996 63.2402C148.596 54.1736 160.062 47.2402 173.396 42.4402C186.729 37.3736 201.262 34.8402 216.996 34.8402C227.929 34.8402 238.329 36.1736 248.196 38.8402C258.062 41.2402 266.996 44.8402 274.996 49.6402C283.262 54.1736 290.329 59.7736 296.196 66.4402C302.329 72.8402 306.862 80.0402 309.796 88.0402L258.596 113.24C255.129 106.307 249.662 100.707 242.196 96.4402C234.996 91.9069 226.996 89.6402 218.196 89.6402C211.796 89.6402 205.796 90.8402 200.196 93.2402C194.596 95.6402 189.662 98.9736 185.396 103.24C181.396 107.24 178.196 112.04 175.796 117.64C173.396 123.24 172.196 129.24 172.196 135.64C172.196 142.307 173.396 148.44 175.796 154.04C178.196 159.64 181.396 164.574 185.396 168.84C189.662 173.107 194.596 176.44 200.196 178.84C205.796 181.24 211.796 182.44 218.196 182.44C226.996 182.44 234.996 180.307 242.196 176.04C249.662 171.507 255.129 165.774 258.596 158.84L309.796 184.04Z" fill="black"/>
<path d="M322.427 66.0402C324.027 64.1736 327.227 61.5069 332.027 58.0402C337.094 54.3069 343.36 50.7069 350.827 47.2402C358.56 43.5069 367.494 40.3069 377.627 37.6402C387.76 34.9736 398.827 33.6402 410.827 33.6402C423.094 33.6402 434.827 35.1069 446.027 38.0402C457.494 40.7069 467.627 45.2402 476.427 51.6402C485.227 58.0402 492.16 66.4402 497.227 76.8402C502.56 87.2402 505.227 100.04 505.227 115.24V234.04H449.227L444.427 211.24C438.294 219.774 430.56 226.44 421.227 231.24C411.894 235.774 400.294 238.04 386.427 238.04C375.76 238.04 366.294 236.574 358.027 233.64C350.027 230.44 343.227 226.174 337.627 220.84C332.294 215.507 328.16 209.24 325.227 202.04C322.56 194.84 321.227 187.107 321.227 178.84C321.227 170.307 322.96 162.174 326.427 154.44C330.16 146.707 335.894 140.04 343.627 134.44C351.627 128.574 361.894 123.907 374.427 120.44C386.96 116.974 402.16 115.24 420.027 115.24H443.227V113.64C443.227 105.64 440.294 99.3736 434.427 94.8402C428.827 90.3069 419.494 88.0402 406.427 88.0402C400.56 88.0402 394.827 88.8402 389.227 90.4402C383.894 92.0402 378.96 93.9069 374.427 96.0402C370.16 98.1736 366.427 100.44 363.227 102.84C360.027 104.974 357.76 106.707 356.427 108.04L322.427 66.0402ZM443.227 150.04H422.427C409.094 150.04 399.894 152.574 394.827 157.64C389.76 162.44 387.227 167.907 387.227 174.04C387.227 178.574 388.96 182.84 392.427 186.84C395.894 190.84 401.494 192.84 409.227 192.84C412.427 192.84 416.027 192.04 420.027 190.44C424.027 188.84 427.627 186.44 430.827 183.24C434.294 180.04 437.227 176.04 439.627 171.24C442.027 166.174 443.227 160.44 443.227 154.04V150.04Z" fill="black"/>
<path d="M658.583 101.24C657.783 100.44 656.183 99.1069 653.783 97.2402C651.65 95.3736 648.983 93.5069 645.783 91.6402C642.583 89.7736 638.85 88.1736 634.583 86.8402C630.317 85.5069 625.783 84.8402 620.983 84.8402C614.85 84.8402 610.583 85.9069 608.183 88.0402C606.05 90.1736 604.983 92.4402 604.983 94.8402C604.983 98.0402 606.317 100.707 608.983 102.84C611.917 104.707 615.783 106.44 620.583 108.04C627.517 110.44 635.783 112.84 645.383 115.24C655.25 117.374 664.583 120.574 673.383 124.84C682.183 129.107 689.65 134.84 695.783 142.04C701.917 149.24 704.983 159.107 704.983 171.64C704.983 181.507 702.85 190.574 698.583 198.84C694.583 207.107 688.717 214.174 680.983 220.04C673.25 225.907 663.783 230.574 652.583 234.04C641.65 237.24 629.25 238.84 615.383 238.84C596.983 238.84 580.183 236.44 564.983 231.64C550.05 226.84 538.05 220.04 528.983 211.24L567.783 167.64C568.85 168.707 570.717 170.307 573.383 172.44C576.317 174.307 579.783 176.307 583.783 178.44C588.05 180.307 592.717 182.04 597.783 183.64C603.117 185.24 608.717 186.04 614.583 186.04C619.383 186.04 623.917 185.374 628.183 184.04C632.45 182.707 634.583 179.907 634.583 175.64C634.583 172.707 633.383 170.307 630.983 168.44C628.583 166.574 625.25 164.84 620.983 163.24C614.05 160.574 605.517 158.04 595.383 155.64C585.517 153.24 575.917 150.04 566.583 146.04C557.25 141.774 549.25 136.04 542.583 128.84C536.183 121.64 532.983 112.04 532.983 100.04C532.983 90.1736 534.983 81.1069 538.983 72.8402C543.25 64.5736 549.117 57.5069 556.583 51.6402C564.317 45.7736 573.517 41.2402 584.183 38.0402C595.117 34.8402 607.383 33.2402 620.983 33.2402C631.383 33.2402 640.85 34.1736 649.383 36.0402C657.917 37.9069 665.383 40.1736 671.783 42.8402C678.183 45.2402 683.517 47.9069 687.783 50.8402C692.05 53.5069 695.25 55.7736 697.383 57.6402L658.583 101.24Z" fill="black"/>
<path d="M101.195 38.8684C80.5342 54.5154 77.766 64.8006 87.8358 88.7794C90.1627 94.3406 87.9963 100.759 82.8611 103.749L82.7206 103.848C80.8952 104.865 78.8291 105.423 76.7429 105.423C74.1553 105.423 71.6278 104.586 69.5817 103.051C68.659 102.393 67.8165 101.616 67.1144 100.699C54.9784 84.9125 47.075 81.6635 38.9309 81.6635C33.0535 81.6635 26.0527 83.4774 16.8053 87.2845C15.3009 87.9223 13.7162 88.2213 12.1114 88.2213C9.08246 88.2213 6.1939 87.0851 4.00742 85.1318C3.08469 84.2946 2.28231 83.3179 1.64041 82.2216L1.52005 82.0023C-1.38857 76.78 -0.0245249 70.302 4.76968 66.6543C5.49182 66.1161 6.17384 65.5979 6.81574 65.0797C23.9064 51.6451 27.3967 41.8583 20.737 23.0619C20.0149 21.0487 19.1924 18.896 18.2296 16.6436C15.9428 11.1024 18.0691 4.724 23.1842 1.69426L23.4851 1.49494C25.1902 0.538178 27.2563 0 29.3826 0C30.7667 0 32.1308 0.23919 33.4146 0.697638C35.6412 1.47501 37.6471 2.91015 39.0713 4.8436C51.127 20.5305 59.0305 23.7596 67.1746 23.7596C70.1033 23.7596 73.3328 23.3011 76.9636 22.3842C80.6345 21.4474 84.6664 20.0322 89.2801 18.1187C90.8046 17.4808 92.3692 17.2018 93.974 17.2018C94.997 17.2018 96.02 17.3413 97.003 17.5805C99.9918 18.3578 102.6 20.2116 104.244 22.8626L104.345 23.042L104.545 23.341C107.534 28.5035 106.11 35.2207 101.175 38.8485L101.195 38.8684Z" fill="black"/>
<path d="M102.038 253.92C95.9799 252.685 90.0624 250.93 84.3455 248.698C58.1278 238.532 35.8217 218.421 23.6256 190.774L23.3648 190.136C11.6501 163.586 6.9361 135.701 8.44056 108.592C8.56092 106.48 10.627 104.965 12.6932 105.523C13.9368 105.862 15.1805 106.141 16.4443 106.36C21.9004 107.297 27.3767 107.137 32.6122 105.921C32.6724 105.921 32.7125 105.902 32.7727 105.882C38.6902 104.546 44.7682 107.337 47.5966 112.659C47.6568 112.758 47.7169 112.878 47.7771 112.978C52.3507 121.569 59.9532 128.266 68.9198 131.834C70.2437 132.352 71.026 133.687 70.9658 135.103C70.5045 146.205 71.0661 157.427 72.7311 168.629C74.9978 184.057 79.3908 199.445 85.9903 214.434L86.2712 215.052C91.4064 226.752 98.3871 237.097 106.692 245.908C109.941 249.356 106.692 254.877 102.038 253.9V253.92Z" fill="black"/>
</svg>
