<?xml version="1.0" encoding="UTF-8"?>
<svg id="Calque_2" data-name="Calque 2" xmlns="http://www.w3.org/2000/svg" viewBox="0 0 53.84 127.43">
  <defs>
    <style>
      .cls-1 {
        fill: #009fe3;
      }
    </style>
  </defs>
  <g id="Calque_1-2" data-name="Calque 1">
    <g>
      <path class="cls-1" d="M50.45,19.48c-10.3,7.85-11.68,13.01-6.66,25.04,1.16,2.79.08,6.01-2.48,7.51l-.07.05c-.91.51-1.94.79-2.98.79-1.29,0-2.55-.42-3.57-1.19-.46-.33-.88-.72-1.23-1.18-6.05-7.92-9.99-9.55-14.05-9.55-2.93,0-6.42.91-11.03,2.82-.75.32-1.54.47-2.34.47-1.51,0-2.95-.57-4.04-1.55-.46-.42-.86-.91-1.18-1.46l-.06-.11c-1.45-2.62-.77-5.87,1.62-7.7.36-.27.7-.53,1.02-.79,8.52-6.74,10.26-11.65,6.94-21.08-.36-1.01-.77-2.09-1.25-3.22-1.14-2.78-.08-5.98,2.47-7.5l.15-.1c.85-.48,1.88-.75,2.94-.75.69,0,1.37.12,2.01.35,1.11.39,2.11,1.11,2.82,2.08,6.01,7.87,9.95,9.49,14.01,9.49,1.46,0,3.07-.23,4.88-.69,1.83-.47,3.84-1.18,6.14-2.14.76-.32,1.54-.46,2.34-.46.51,0,1.02.07,1.51.19,1.49.39,2.79,1.32,3.61,2.65l.05.09.1.15c1.49,2.59.78,5.96-1.68,7.78Z"/>
      <path class="cls-1" d="M50.87,127.37c-3.02-.62-5.97-1.5-8.82-2.62-13.07-5.1-24.19-15.19-30.27-29.06l-.13-.32c-5.84-13.32-8.19-27.31-7.44-40.91.06-1.06,1.09-1.82,2.12-1.54.62.17,1.24.31,1.87.42,2.72.47,5.45.39,8.06-.22.03,0,.05-.01.08-.02,2.95-.67,5.98.73,7.39,3.4.03.05.06.11.09.16,2.28,4.31,6.07,7.67,10.54,9.46.66.26,1.05.93,1.02,1.64-.23,5.57.05,11.2.88,16.82,1.13,7.74,3.32,15.46,6.61,22.98l.14.31c2.56,5.87,6.04,11.06,10.18,15.48,1.62,1.73,0,4.5-2.32,4.01Z"/>
    </g>
  </g>
</svg>